<svg xmlns="http://www.w3.org/2000/svg" viewBox="0 0 841.9 595.3"><g fill="#61DAFB"><circle cx="420.9" cy="296.5" r="45.7"/><path d="M420.9 130.8c-91.4 0-165.7 74.3-165.7 165.7s74.3 165.7 165.7 165.7 165.7-74.3 165.7-165.7-74.3-165.7-165.7-165.7zm0 45.7c66.2 0 120 53.8 120 120s-53.8 120-120 120-120-53.8-120-120 53.8-120 120-120z"/><ellipse cx="420.9" cy="296.5" rx="420.9" ry="45.7" transform="rotate(-30 420.9 296.5)"/><ellipse cx="420.9" cy="296.5" rx="420.9" ry="45.7" transform="rotate(30 420.9 296.5)"/><ellipse cx="420.9" cy="296.5" rx="420.9" ry="45.7" transform="rotate(90 420.9 296.5)"/></g></svg>
